<svg class="motion-logo" viewBox="0 0 1024 1024" role="img" aria-labelledby="title desc">
        <title id="title">Suaveforge GSAP animated logo</title>
        <desc id="desc">A broken S is struck by an F shaped wrench, splits into a refresh ring, then locks into the final Suaveforge logo.</desc>
        <defs>
          <filter id="rough">
            <feTurbulence type="fractalNoise" baseFrequency="0.018" numOctaves="2" seed="8" />
            <feDisplacementMap in="SourceGraphic" scale="8" />
          </filter>
          <mask id="logoCutoutMask" maskUnits="userSpaceOnUse" x="0" y="0" width="1024" height="1024">
            <rect width="1024" height="1024" fill="white" />
            <use href="#sourceLogoPath" fill="black" fill-rule="evenodd" />
          </mask>
        </defs>

        <g id="originalLogo" class="ghost-mark">
          <path id="sourceLogoPath" d="M 0 512.001 L 0 1024.002 512.250 1023.751 L 1024.500 1023.500 1024.751 511.750 L 1025.002 0 512.501 0 L 0 0 0 512.001 M 0.496 512.500 C 0.496 794.100, 0.610 909.151, 0.750 768.168 C 0.890 627.186, 0.890 396.786, 0.750 256.168 C 0.610 115.551, 0.496 230.900, 0.496 512.500 M 635.280 219.087 C 630.236 220.965, 630.943 222.911, 651.035 262.413 C 661.583 283.152, 670.044 300.289, 669.837 300.497 C 669.629 300.704, 664.068 297.497, 657.480 293.370 C 604.844 260.398, 551.434 246.581, 493.500 250.949 C 456.104 253.769, 425.076 262.090, 394 277.633 C 312.980 318.156, 261.605 389.383, 248.373 479.534 C 246.223 494.179, 245.944 530.716, 247.872 545 C 258.817 626.067, 305.649 698.389, 373.221 738.575 C 388.336 747.564, 413.616 759.909, 414.533 758.748 C 414.641 758.612, 414.993 756.250, 415.315 753.500 L 415.901 748.500 399.921 740.648 C 347.545 714.914, 307.702 674.863, 282.387 622.500 C 270.998 598.942, 263.296 574.282, 259.289 548.541 C 257.160 534.865, 256.925 498.180, 258.875 484 C 260.695 470.772, 264.614 451.638, 267.409 442.332 C 285.899 380.783, 325.204 330.373, 381.160 296.443 C 408.072 280.125, 439.020 269.191, 473.500 263.820 C 493.527 260.701, 530.276 260.708, 550.500 263.836 C 578.645 268.189, 600.793 275.273, 625.362 287.784 C 639.485 294.975, 661 308.258, 661 309.787 C 661 310.179, 638.959 310.379, 612.019 310.231 C 564.037 309.968, 562.996 310.004, 561.019 311.981 C 558.596 314.404, 558.427 317.284, 560.579 319.436 C 561.989 320.846, 568.792 320.988, 624.291 320.758 L 686.424 320.500 687.954 317.772 C 689.458 315.093, 689.063 314.204, 665.493 267.320 C 648.483 233.486, 640.918 219.402, 639.500 218.928 C 638.400 218.561, 636.501 218.632, 635.280 219.087 M 493.253 278.041 C 447.476 281.562, 402.801 298.721, 365.207 327.223 C 317.407 363.463, 285.606 417.903, 275.962 480 C 272.766 500.585, 273.556 506, 279.757 506 C 283.111 506, 284.808 503.419, 285.511 497.251 C 291.992 440.358, 312.062 395.832, 347.995 358.623 C 382.575 322.816, 425.641 300.282, 475.500 291.906 C 491.228 289.263, 519.624 288.341, 535.500 289.957 C 542.100 290.628, 548.565 291.250, 549.868 291.339 C 551.411 291.444, 552.970 290.527, 554.347 288.704 C 556.300 286.119, 556.345 285.705, 554.943 283.208 C 553.554 280.732, 552.643 280.411, 544.025 279.350 C 530.356 277.668, 506.206 277.045, 493.253 278.041 M 708.245 344.250 C 705.476 347.711, 705.942 349.622, 710.946 355.341 C 722.598 368.656, 737.983 393.337, 745.938 411.476 C 759.168 441.642, 765.737 471.086, 766.713 504.596 C 767.823 542.697, 762.175 574.963, 748.387 609.286 C 726.879 662.830, 681.788 711.565, 628.776 738.566 C 599.283 753.587, 562.531 764.410, 533.415 766.648 L 524.950 767.299 525.225 693.377 L 525.500 619.456 528.825 612.702 C 530.654 608.988, 542.939 589.697, 556.124 569.833 C 579.604 534.463, 580.092 533.623, 579.799 529.109 C 579.528 524.928, 579.166 524.337, 575.901 522.740 C 573.922 521.772, 557.047 516.038, 538.401 509.998 C 493.532 495.465, 496 496.454, 496 493.006 C 496 490.156, 500.741 485, 503.361 485 C 504.025 485, 511.962 487.475, 521 490.500 C 530.038 493.525, 537.785 496, 538.216 496 C 538.647 496, 539 487, 539 476 C 539 465, 539.112 455.908, 539.250 455.796 C 539.388 455.684, 564.250 455.347, 594.500 455.046 L 649.500 454.500 649.764 422.750 L 650.028 391 565.014 391 L 480 391 480 440.031 C 480 482.198, 479.795 489.142, 478.533 489.626 C 476.601 490.367, 436.994 477.241, 434.803 475.133 C 433.211 473.601, 433.658 471.029, 442.039 433.500 C 446.952 411.500, 450.978 392.938, 450.986 392.250 C 451.010 390.083, 448.340 390.858, 438.617 395.839 C 397.939 416.678, 373 454.157, 373 494.451 C 373 513.095, 377.996 525.079, 394.700 546.500 C 413.761 570.943, 422.149 582.365, 424.617 587.233 C 430.058 597.965, 430 596.923, 430 684.181 L 430 764.942 440.250 768.044 C 445.887 769.750, 451.728 771.537, 453.228 772.014 C 454.964 772.565, 456.189 772.503, 456.597 771.843 C 456.950 771.272, 457.072 742.837, 456.869 708.653 L 456.500 646.500 458.770 642.251 C 464.770 631.018, 480.740 628.565, 490.735 637.340 C 497.768 643.515, 497.468 640.313, 497.791 712.750 L 498.082 778 512.791 777.999 C 562.931 777.995, 617.249 761.324, 659.724 732.904 C 673.711 723.545, 677.318 720.762, 689.431 709.983 C 746.334 659.350, 777.931 588.837, 777.989 512.356 C 778.028 461.685, 763.035 411.841, 735.163 369.975 C 722.423 350.838, 715.722 343, 712.100 343 C 710.530 343, 708.795 343.563, 708.245 344.250 M 460.153 520.750 C 459.648 521.712, 455.546 534.598, 451.038 549.384 C 444.158 571.946, 443.057 576.486, 444.189 577.618 C 444.931 578.360, 457.455 582.769, 472.019 587.415 C 486.584 592.062, 499.203 596.135, 500.063 596.467 C 500.941 596.806, 502.333 596.288, 503.239 595.285 C 504.513 593.875, 510.786 573.969, 520.683 539.930 C 520.934 539.067, 520.545 537.887, 519.820 537.309 C 519.094 536.731, 509.725 533.470, 499 530.062 C 488.275 526.655, 476.123 522.772, 471.997 521.434 C 463.064 518.537, 461.365 518.438, 460.153 520.750 M 591.662 534.208 C 591.111 538.856, 589.159 542.245, 573.522 565.705 C 563.885 580.164, 556 592.220, 556 592.497 C 556 593.316, 648.849 593.070, 649.239 592.250 C 649.435 591.837, 649.418 577.438, 649.201 560.250 L 648.807 529 620.543 529 L 592.279 529 591.662 534.208 M 468.030 537.944 C 467.457 539.014, 465.135 545.762, 462.869 552.940 C 459.435 563.816, 458.963 566.251, 460.038 567.546 C 460.757 568.412, 462.472 568.968, 463.909 568.801 C 466.294 568.523, 466.807 567.479, 470.700 555 C 473.016 547.575, 474.931 540.536, 474.955 539.357 C 475.030 535.780, 469.763 534.706, 468.030 537.944 M 483.061 542.886 C 482.471 543.989, 480.170 550.809, 477.950 558.041 C 473.755 571.703, 473.763 574, 478 574 C 480.665 574, 481.397 572.576, 486.104 558.225 C 489.485 547.920, 490.217 544.565, 489.377 543.225 C 487.789 540.691, 484.335 540.505, 483.061 542.886 M 498.175 546.750 C 497.682 547.712, 495.346 554.669, 492.984 562.209 C 489.422 573.574, 488.906 576.182, 489.966 577.459 C 491.794 579.661, 494.736 579.361, 496.089 576.834 C 498.055 573.160, 505 551.726, 505 549.332 C 505 545.595, 499.777 543.619, 498.175 546.750" fill-rule="evenodd" />
        </g>

        <g id="exactFinalLogo" class="exact-final">
          <rect x="18" y="18" width="988" height="988" mask="url(#logoCutoutMask)" />
        </g>

        <g id="motionLayers">
          <path id="ringPath" class="draw-ring" d="M 637 229 C 733 279 789 383 778 506 C 766 654 650 766 512 769 C 369 771 255 666 249 526 C 243 380 351 262 502 257 C 565 255 619 273 670 306" />
          <path id="innerArc" class="inner-arc" d="M 550 286 C 498 277 434 288 381 323 C 323 361 289 420 280 497" />
          <path id="sTop" class="broken-s" d="M 642 318 C 578 246 405 263 374 361 C 346 449 499 462 585 488" />
          <path id="sBottom" class="broken-s" d="M 583 488 C 724 526 716 658 588 728 C 494 778 367 745 318 656" />
          <path id="sCut" class="s-cut" d="M 385 423 C 456 474 535 507 629 533" />

          <path id="impactRing" class="impact-ring" d="M 424 410 C 487 349 584 351 643 414 C 700 475 697 570 635 629 C 574 688 477 686 418 624 C 360 563 363 470 424 410" />

          <path id="arrowHead" class="arrow-head" d="M 633 218 L 697 322 L 575 320 Z" />
          <path id="fTool" class="f-tool" d="M 480 391 L 650 391 L 650 455 L 539 455 L 539 496 L 649 529 L 649 593 L 525 593 L 525 778 L 430 765 L 430 590 C 430 577 418 560 395 531 C 376 507 369 479 383 449 C 394 424 415 406 451 391 L 433 475 L 496 496 C 496 489 500 485 504 485 L 539 496 L 539 455 L 480 455 Z" />
          <path id="finalF" class="final-f" d="M 430 391 L 650 391 L 650 455 L 539 455 L 539 529 L 649 529 L 649 593 L 539 593 L 539 778 L 430 778 Z" />
          <g id="fHighlights">
            <path class="f-highlight" d="M 486 405 L 642 405" />
            <path class="f-highlight" d="M 532 536 L 641 536" />
            <path class="f-highlight" d="M 486 421 L 486 742" />
          </g>

          <circle class="spark" data-x="-132" data-y="-84" cx="512" cy="512" r="10" />
          <circle class="spark hot" data-x="142" data-y="-72" cx="512" cy="512" r="8" />
          <circle class="spark" data-x="-98" data-y="112" cx="512" cy="512" r="7" />
          <circle class="spark hot" data-x="122" data-y="126" cx="512" cy="512" r="9" />
          <circle class="spark" data-x="0" data-y="-152" cx="512" cy="512" r="6" />
        </g>
      </svg>
