<svg class="motion-logo" viewBox="0 0 1024 1024" role="img" aria-labelledby="title desc">
        <title id="title">Suaveforge GSAP animated logo</title>
        <desc id="desc">A broken S is struck by an F shaped wrench, splits into a refresh ring, then locks into the final Suaveforge logo.</desc>
        <defs>
          <filter id="rough">
            <feTurbulence type="fractalNoise" baseFrequency="0.018" numOctaves="2" seed="8" />
            <feDisplacementMap in="SourceGraphic" scale="8" />
          </filter>
        </defs>

        <g id="motionLayers">
          <path id="ringPath" class="draw-ring" d="M 637 229 C 733 279 789 383 778 506 C 766 654 650 766 512 769 C 369 771 255 666 249 526 C 243 380 351 262 502 257 C 565 255 619 273 670 306" />
          <path id="innerArc" class="inner-arc" d="M 550 286 C 498 277 434 288 381 323 C 323 361 289 420 280 497" />
          <path id="sTop" class="broken-s" d="M 642 318 C 578 246 405 263 374 361 C 346 449 499 462 585 488" />
          <path id="sBottom" class="broken-s" d="M 583 488 C 724 526 716 658 588 728 C 494 778 367 745 318 656" />
          <path id="sCut" class="s-cut" d="M 385 423 C 456 474 535 507 629 533" />

          <path id="impactRing" class="impact-ring" d="M 424 410 C 487 349 584 351 643 414 C 700 475 697 570 635 629 C 574 688 477 686 418 624 C 360 563 363 470 424 410" />

          <path id="arrowHead" class="arrow-head" d="M 633 218 L 697 322 L 575 320 Z" />
          <path id="fTool" class="f-tool" d="M 480 391 L 650 391 L 650 455 L 539 455 L 539 496 L 649 529 L 649 593 L 525 593 L 525 778 L 430 765 L 430 590 C 430 577 418 560 395 531 C 376 507 369 479 383 449 C 394 424 415 406 451 391 L 433 475 L 496 496 C 496 489 500 485 504 485 L 539 496 L 539 455 L 480 455 Z" />
          <path id="finalF" class="final-f" d="M 430 391 L 650 391 L 650 455 L 539 455 L 539 529 L 649 529 L 649 593 L 539 593 L 539 778 L 430 778 Z" />
          <g id="fHighlights">
            <path class="f-highlight" d="M 486 405 L 642 405" />
            <path class="f-highlight" d="M 532 536 L 641 536" />
            <path class="f-highlight" d="M 486 421 L 486 742" />
          </g>

          <circle class="spark" data-x="-132" data-y="-84" cx="512" cy="512" r="10" />
          <circle class="spark hot" data-x="142" data-y="-72" cx="512" cy="512" r="8" />
          <circle class="spark" data-x="-98" data-y="112" cx="512" cy="512" r="7" />
          <circle class="spark hot" data-x="122" data-y="126" cx="512" cy="512" r="9" />
          <circle class="spark" data-x="0" data-y="-152" cx="512" cy="512" r="6" />
        </g>
      </svg>
