<svg xmlns="http://www.w3.org/2000/svg" viewBox="0 0 1425 900" role="img" aria-labelledby="title desc">
  <title id="title">Ad CRM Data Hub prototype preview</title>
  <desc id="desc">An advertising, analytics and CRM data integration dashboard prototype preview.</desc>
  <defs>
    <linearGradient id="bg" x1="0" x2="1" y1="0" y2="1">
      <stop offset="0" stop-color="#f4f7ff"/>
      <stop offset="1" stop-color="#f8fbff"/>
    </linearGradient>
    <linearGradient id="blue" x1="0" x2="1">
      <stop offset="0" stop-color="#3366ff"/>
      <stop offset="1" stop-color="#10b8a6"/>
    </linearGradient>
    <filter id="shadow" x="-10%" y="-10%" width="120%" height="130%">
      <feDropShadow dx="0" dy="20" stdDeviation="20" flood-color="#1d2a52" flood-opacity=".14"/>
    </filter>
  </defs>
  <rect width="1425" height="900" rx="28" fill="url(#bg)"/>
  <g transform="translate(54 54)" filter="url(#shadow)">
    <rect width="1317" height="792" rx="26" fill="#ffffff"/>
    <rect width="226" height="792" rx="26" fill="#111a33"/>
    <rect x="202" width="24" height="792" fill="#111a33"/>
    <g font-family="Inter, Arial, sans-serif">
      <rect x="34" y="38" width="42" height="42" rx="12" fill="url(#blue)"/>
      <text x="55" y="66" text-anchor="middle" font-size="19" font-weight="900" fill="#ffffff">AD</text>
      <text x="92" y="56" font-size="22" font-weight="900" fill="#ffffff">Data Hub</text>
      <text x="92" y="80" font-size="13" font-weight="800" fill="#9fb0cc">광고 · GA · Salesforce</text>
      <g font-size="17" font-weight="900" fill="#c5d0e3">
        <text x="38" y="158">통합 현황</text>
        <text x="38" y="216">데이터 파이프라인</text>
        <text x="38" y="274">CRM 운영</text>
        <text x="38" y="332">납품 계획</text>
      </g>
      <rect x="30" y="672" width="166" height="70" rx="18" fill="#1e2a48"/>
      <text x="52" y="702" font-size="13" font-weight="900" fill="#9fb0cc">최신 동기화</text>
      <text x="52" y="726" font-size="15" font-weight="900" fill="#ffffff">BigQuery mart 완료</text>
    </g>
    <g transform="translate(270 58)" font-family="Inter, Arial, sans-serif">
      <text x="0" y="0" font-size="15" font-weight="900" fill="#3366ff">PROTOTYPE</text>
      <text x="0" y="58" font-size="44" font-weight="900" fill="#17213b">광고 및 고객 데이터 통합 대시보드</text>
      <g transform="translate(0 102)">
        <rect width="142" height="42" rx="21" fill="#eef3ff"/>
        <text x="71" y="28" text-anchor="middle" font-size="15" font-weight="900" fill="#3366ff">최근 30일</text>
        <rect x="162" width="142" height="42" rx="21" fill="#f6f8fb"/>
        <text x="233" y="28" text-anchor="middle" font-size="15" font-weight="900" fill="#728096">전체 캠페인</text>
      </g>
      <g transform="translate(0 180)">
        <rect width="230" height="120" rx="24" fill="#f8faff" stroke="#e0e7f2"/>
        <text x="28" y="38" font-size="14" font-weight="900" fill="#7a879d">광고비</text>
        <text x="28" y="82" font-size="36" font-weight="900" fill="#17213b">₩84.2M</text>
        <rect x="256" width="230" height="120" rx="24" fill="#f8faff" stroke="#e0e7f2"/>
        <text x="284" y="38" font-size="14" font-weight="900" fill="#7a879d">전환 리드</text>
        <text x="284" y="82" font-size="36" font-weight="900" fill="#17213b">2,184</text>
        <rect x="512" width="230" height="120" rx="24" fill="#f8faff" stroke="#e0e7f2"/>
        <text x="540" y="38" font-size="14" font-weight="900" fill="#7a879d">SQL 파이프라인</text>
        <text x="540" y="82" font-size="36" font-weight="900" fill="#17213b">₩412M</text>
        <rect x="768" width="230" height="120" rx="24" fill="#eefbf9" stroke="#caeee9"/>
        <text x="796" y="38" font-size="14" font-weight="900" fill="#54817b">ROAS</text>
        <text x="796" y="82" font-size="36" font-weight="900" fill="#0f9b8b">489%</text>
      </g>
      <g transform="translate(0 342)">
        <rect width="490" height="284" rx="24" fill="#ffffff" stroke="#e0e7f2"/>
        <text x="30" y="46" font-size="21" font-weight="900" fill="#17213b">채널별 성과</text>
        <g font-size="18" font-weight="900">
          <text x="34" y="104" fill="#17213b">Google</text><rect x="142" y="84" width="270" height="28" rx="14" fill="#e8efff"/><rect x="142" y="84" width="244" height="28" rx="14" fill="#3366ff"/><text x="426" y="106" fill="#17213b">489%</text>
          <text x="34" y="154" fill="#17213b">Naver</text><rect x="142" y="134" width="270" height="28" rx="14" fill="#e8efff"/><rect x="142" y="134" width="206" height="28" rx="14" fill="#10b8a6"/><text x="426" y="156" fill="#17213b">412%</text>
          <text x="34" y="204" fill="#17213b">LinkedIn</text><rect x="142" y="184" width="270" height="28" rx="14" fill="#e8efff"/><rect x="142" y="184" width="178" height="28" rx="14" fill="#6c63ff"/><text x="426" y="206" fill="#17213b">355%</text>
          <text x="34" y="254" fill="#17213b">Meta</text><rect x="142" y="234" width="270" height="28" rx="14" fill="#e8efff"/><rect x="142" y="234" width="119" height="28" rx="14" fill="#ff6a88"/><text x="426" y="256" fill="#17213b">238%</text>
        </g>
        <rect x="526" width="472" height="284" rx="24" fill="#ffffff" stroke="#e0e7f2"/>
        <text x="556" y="46" font-size="21" font-weight="900" fill="#17213b">고객 퍼널</text>
        <text x="556" y="78" font-size="15" font-weight="800" fill="#7a879d">GA + Salesforce</text>
        <g transform="translate(556 108)">
          <rect width="400" height="30" rx="15" fill="#3366ff"/><text x="420" y="22" font-size="15" font-weight="900" fill="#17213b">방문 128,400</text>
          <rect y="44" width="290" height="30" rx="15" fill="#10b8a6"/><text x="420" y="66" font-size="15" font-weight="900" fill="#17213b">전환 8,910</text>
          <rect y="88" width="210" height="30" rx="15" fill="#6c63ff"/><text x="420" y="110" font-size="15" font-weight="900" fill="#17213b">MQL 2,184</text>
          <rect y="132" width="138" height="30" rx="15" fill="#ffb020"/><text x="420" y="154" font-size="15" font-weight="900" fill="#17213b">SQL 692</text>
          <rect y="176" width="70" height="30" rx="15" fill="#ff6a88"/><text x="420" y="198" font-size="15" font-weight="900" fill="#17213b">계약 118</text>
        </g>
      </g>
      <g transform="translate(0 660)">
        <rect width="998" height="84" rx="22" fill="#f8faff" stroke="#e0e7f2"/>
        <text x="30" y="34" font-size="16" font-weight="900" fill="#7a879d">캠페인 · 고객 연결 테이블</text>
        <text x="30" y="62" font-size="18" font-weight="900" fill="#17213b">광고 클릭부터 Salesforce 기회까지 같은 고객 키로 추적</text>
      </g>
    </g>
  </g>
</svg>
